<?xml version="1.0" encoding="UTF-8"?>
<svg xmlns="http://www.w3.org/2000/svg" xmlns:xlink="http://www.w3.org/1999/xlink" width="585pt" height="257pt" viewBox="0 0 585 257" version="1.1">
<g id="surface1">
<path style=" stroke:none;fill-rule:evenodd;fill:rgb(65.499878%,66.299438%,67.498779%);fill-opacity:1;" d="M 59.992188 255.832031 C 41.640625 255.890625 15.105469 255.855469 14.449219 255.855469 L 58.71875 76.871094 Z M 68.613281 255.914063 L 67.902344 93.753906 L 95.296875 6.847656 L 139.074219 7.011719 L 164.9375 107.5 L 192.199219 6.863281 L 524.363281 6.664063 L 524.773438 212.164063 L 512.375 255.851563 L 439.71875 255.855469 L 488.402344 68.75 L 411.230469 68.75 L 357.539063 255.695313 L 290.546875 255.941406 L 338.328125 68.585938 L 281.679688 68.664063 L 290.957031 35.910156 L 274.78125 35.910156 L 211.078125 255.691406 L 145.902344 255.773438 L 126.351563 165.378906 L 100.40625 255.9375 C 100.394531 255.984375 89.597656 255.847656 68.613281 255.914063 Z M 527.8125 6.578125 L 584.046875 6.695313 L 530.519531 191.8125 Z M 527.8125 6.578125 "/>
<path style="fill:none;stroke-width:2.16;stroke-linecap:butt;stroke-linejoin:miter;stroke:rgb(65.499878%,66.299438%,67.498779%);stroke-opacity:1;stroke-miterlimit:22.9256;" d="M 599.921875 11.679688 C 416.40625 11.09375 151.054688 11.445313 144.492188 11.445313 L 587.1875 1801.289063 M 686.132813 10.859375 L 679.023438 1632.460938 L 952.96875 2501.523438 L 1390.742188 2499.882813 L 1649.375 1495 L 1921.992188 2501.367188 L 5243.632813 2503.359375 L 5247.734375 448.359375 L 5123.75 11.484375 L 4397.1875 11.445313 L 4884.023438 1882.5 L 4112.304688 1882.5 L 3575.390625 13.046875 L 2905.46875 10.585938 L 3383.28125 1884.140625 L 2816.796875 1883.359375 L 2909.570313 2210.898438 L 2747.8125 2210.898438 L 2110.78125 13.085938 L 1459.023438 12.265625 L 1263.515625 916.210938 L 1004.0625 10.625 C 1003.945313 10.15625 895.976563 11.523438 686.132813 10.859375 Z M 5278.125 2504.21875 L 5840.46875 2503.046875 L 5305.195313 651.875 " transform="matrix(0.1,0,0,-0.1,0,257)"/>
<path style=" stroke:none;fill-rule:evenodd;fill:rgb(92.498779%,21.998596%,15.699768%);fill-opacity:1;" d="M 46.550781 242.796875 L 0.332031 242.796875 L 47.867188 77.285156 C 47.867188 77.285156 46.550781 245.425781 46.550781 242.796875 "/>
<path style=" stroke:none;fill-rule:evenodd;fill:rgb(25.498962%,25.099182%,25.898743%);fill-opacity:1;" d="M 57.222656 242.796875 L 57.222656 44.941406 L 69.949219 0.199219 L 138.421875 0.445313 L 164.773438 101.261719 L 193.671875 0.113281 L 262.714844 0.113281 L 192.933594 242.800781 L 129.0625 242.882813 L 110.257813 142.308594 L 81.691406 242.796875 L 57.222656 242.796875 "/>
<path style="fill:none;stroke-width:2.16;stroke-linecap:butt;stroke-linejoin:miter;stroke:rgb(25.498962%,25.099182%,25.898743%);stroke-opacity:1;stroke-miterlimit:22.9256;" d="M 572.226563 142.03125 L 572.226563 2120.585938 L 699.492188 2568.007813 L 1384.21875 2565.546875 L 1647.734375 1557.382813 L 1936.71875 2568.867188 L 2627.148438 2568.867188 L 1929.335938 141.992188 L 1290.625 141.171875 L 1102.578125 1146.914063 L 816.914063 142.03125 Z M 572.226563 142.03125 " transform="matrix(0.1,0,0,-0.1,0,257)"/>
<path style=" stroke:none;fill-rule:evenodd;fill:rgb(25.498962%,25.099182%,25.898743%);fill-opacity:1;" d="M 273.226563 242.710938 L 321.578125 52 L 266.410156 52.164063 L 281.515625 0.191406 L 462.378906 0.191406 L 447.847656 51.671875 L 397.4375 51.671875 L 342.191406 242.792969 L 273.226563 242.710938 "/>
<path style="fill:none;stroke-width:2.16;stroke-linecap:butt;stroke-linejoin:miter;stroke:rgb(25.498962%,25.099182%,25.898743%);stroke-opacity:1;stroke-miterlimit:22.9256;" d="M 2732.265625 142.890625 L 3215.78125 2050 L 2664.101563 2048.359375 L 2815.15625 2568.085938 L 4623.789063 2568.085938 L 4478.476563 2053.28125 L 3974.375 2053.28125 L 3421.914063 142.070313 Z M 2732.265625 142.890625 " transform="matrix(0.1,0,0,-0.1,0,257)"/>
<path style=" stroke:none;fill-rule:evenodd;fill:rgb(25.498962%,25.099182%,25.898743%);fill-opacity:1;" d="M 413.859375 242.792969 L 483.722656 0.359375 L 508.355469 0.195313 L 507.945313 206.503906 L 497.601563 242.710938 C 497.601563 242.710938 413.859375 242.792969 413.859375 242.792969 "/>
<path style="fill:none;stroke-width:2.16;stroke-linecap:butt;stroke-linejoin:miter;stroke:rgb(25.498962%,25.099182%,25.898743%);stroke-opacity:1;stroke-miterlimit:22.9256;" d="M 4138.59375 142.070313 L 4837.226563 2566.40625 L 5083.554688 2568.046875 L 5079.453125 504.960938 L 4976.015625 142.890625 C 4976.015625 142.890625 4138.59375 142.070313 4138.59375 142.070313 Z M 4138.59375 142.070313 " transform="matrix(0.1,0,0,-0.1,0,257)"/>
<path style=" stroke:none;fill-rule:evenodd;fill:rgb(19.999695%,27.799988%,60.398865%);fill-opacity:1;" d="M 522.886719 158.402344 L 523.542969 0.277344 L 568.199219 0.277344 Z M 522.886719 158.402344 "/>
</g>
</svg>
